<?xml version="1.0" encoding="utf-8"?>
<!-- Generator: Adobe Illustrator 25.4.1, SVG Export Plug-In . SVG Version: 6.00 Build 0)  -->
<svg version="1.1" id="Layer_1" xmlns="http://www.w3.org/2000/svg" xmlns:xlink="http://www.w3.org/1999/xlink" x="0px" y="0px"
	 viewBox="0 0 24 24" style="enable-background:new 0 0 24 24;" xml:space="preserve">
<style type="text/css">
	.st0{fill:#FFFFFF;}
</style>
<path class="st0" d="M20,3H4C3.7,3,3.5,3.1,3.3,3.3C3.1,3.5,3,3.7,3,4v16c0,0.3,0.1,0.5,0.3,0.7C3.5,20.9,3.7,21,4,21h8.6v-7h-2.3
	v-2.7h2.3v-2c0-2.3,1.4-3.6,3.5-3.6c0.7,0,1.4,0,2.1,0.1v2.4h-1.4c-1.1,0-1.4,0.5-1.4,1.3v1.7h2.7L17.8,14h-2.3v7H20
	c0.3,0,0.5-0.1,0.7-0.3c0.2-0.2,0.3-0.4,0.3-0.7V4c0-0.3-0.1-0.5-0.3-0.7C20.5,3.1,20.3,3,20,3z"/>
</svg>
