<svg id="Layer_1" data-name="Layer 1" xmlns="http://www.w3.org/2000/svg" viewBox="0 0 35.61 30.52"><defs><style>.cls-1{fill:#e52521;}</style></defs><path class="cls-1" d="M23.87,35.42a.81.81,0,0,1-.42-.12c-.21-.13-21-12.64-16.84-24.25a8.65,8.65,0,0,1,7.68-6.12,11.09,11.09,0,0,1,9.58,4.53,11.1,11.1,0,0,1,9.58-4.53,8.66,8.66,0,0,1,7.69,6.12h0C45.25,22.66,24.51,35.17,24.3,35.3A.82.82,0,0,1,23.87,35.42ZM15,6.56l-.61,0a7,7,0,0,0-6.25,5,9.39,9.39,0,0,0,.77,7.33A27.17,27.17,0,0,0,14.28,26a60.86,60.86,0,0,0,9.59,7.61A60.33,60.33,0,0,0,33.47,26a27.17,27.17,0,0,0,5.34-7.07,9.38,9.38,0,0,0,.76-7.33,7,7,0,0,0-6.24-5,9.38,9.38,0,0,0-8.72,4.84.85.85,0,0,1-.74.44.83.83,0,0,1-.73-.44A9.4,9.4,0,0,0,15,6.56Z" transform="translate(-6.07 -4.9)"/><path class="cls-1" d="M39.72,11.58c-2.8-7.91-12.63-6.3-15.82-.29-3.2-6-13-7.62-15.83.29C4.49,21.7,22.52,33.09,23.9,33.91,25.27,33.09,43.31,21.7,39.72,11.58Z" transform="translate(-6.07 -4.9)"/></svg>