<?xml version="1.0" encoding="utf-8"?>
<!-- Generator: Adobe Illustrator 25.4.1, SVG Export Plug-In . SVG Version: 6.00 Build 0)  -->
<svg version="1.1" id="Layer_1" xmlns="http://www.w3.org/2000/svg" xmlns:xlink="http://www.w3.org/1999/xlink" x="0px" y="0px"
	 viewBox="0 0 24 24" style="enable-background:new 0 0 24 24;" xml:space="preserve">
<style type="text/css">
	.st0{fill:#FFFFFF;}
</style>
<path class="st0" d="M19.6,3H4.3C3.6,3,3,3.6,3,4.3v15.4C3,20.4,3.6,21,4.3,21h15.3c0.8,0,1.4-0.6,1.4-1.3V4.3C21,3.6,20.4,3,19.6,3
	z M8.3,18.3H5.7V9.8h2.6V18.3z M7.1,8.6C6.2,8.6,5.5,7.9,5.5,7s0.7-1.6,1.6-1.6c0.8,0,1.6,0.7,1.6,1.6S7.9,8.6,7.1,8.6z M18.4,18.3
	h-2.6v-4.2c0-1,0-2.3-1.4-2.3s-1.6,1.1-1.6,2.2v4.3h-2.6V9.8h2.5v1.1h0.1c0.4-0.7,1.3-1.4,2.6-1.4c2.7,0,3.2,1.8,3.2,4.1L18.4,18.3
	L18.4,18.3z"/>
</svg>
