<?xml version="1.0" encoding="utf-8"?>
<!-- Generator: Adobe Illustrator 25.4.1, SVG Export Plug-In . SVG Version: 6.00 Build 0)  -->
<svg version="1.1" id="Layer_1" xmlns="http://www.w3.org/2000/svg" xmlns:xlink="http://www.w3.org/1999/xlink" x="0px" y="0px"
	 viewBox="0 0 24 24" style="enable-background:new 0 0 24 24;" xml:space="preserve">
<style type="text/css">
	.st0{fill:#FFFFFF;}
</style>
<path class="st0" d="M20.9,13.4C21,12.9,21,12.5,21,12c0-2.4-1-4.7-2.6-6.4C16.7,3.9,14.4,3,12,3c-0.5,0-0.9,0-1.4,0.1
	c-1-0.6-2.3-0.9-3.5-0.7C5.9,2.5,4.8,3,3.9,3.9c-0.9,0.9-1.4,2-1.6,3.2c-0.1,1.2,0.1,2.4,0.7,3.5C3,11,3,11.5,3,12
	c0,2.4,1,4.7,2.6,6.4c1.7,1.7,4,2.6,6.4,2.6c0.5,0,0.9,0,1.4-0.1c1,0.6,2.3,0.9,3.5,0.7c1.2-0.1,2.3-0.7,3.2-1.6s1.4-2,1.6-3.2
	C21.8,15.7,21.5,14.5,20.9,13.4L20.9,13.4z M16.3,16.1c-0.4,0.6-1,1-1.7,1.3c-0.8,0.3-1.7,0.5-2.6,0.5c-1,0-2.1-0.2-3-0.6
	C8.5,17,8,16.5,7.6,16c-0.3-0.4-0.5-1-0.5-1.5c0-0.1,0-0.3,0.1-0.4c0.1-0.1,0.1-0.2,0.2-0.3c0.2-0.2,0.5-0.3,0.8-0.3
	c0.2,0,0.5,0.1,0.7,0.2c0.2,0.2,0.4,0.4,0.5,0.7c0.1,0.3,0.3,0.6,0.5,0.9c0.2,0.3,0.5,0.5,0.7,0.6c0.4,0.2,0.8,0.3,1.3,0.2
	c0.6,0,1.2-0.1,1.8-0.5c0.2-0.1,0.4-0.3,0.5-0.5c0.1-0.2,0.2-0.4,0.2-0.7c0-0.2,0-0.3-0.1-0.5c-0.1-0.2-0.2-0.3-0.3-0.4
	c-0.3-0.2-0.6-0.4-0.9-0.5c-0.4-0.1-0.9-0.3-1.6-0.4c-0.7-0.2-1.5-0.4-2.2-0.7c-0.6-0.2-1-0.6-1.4-1.1c-0.4-0.5-0.5-1.1-0.5-1.7
	c0-0.6,0.2-1.2,0.6-1.7c0.4-0.5,1-0.9,1.6-1.1c0.8-0.3,1.6-0.4,2.5-0.4c0.7,0,1.3,0.1,1.9,0.3c0.5,0.1,1,0.4,1.4,0.7
	c0.3,0.2,0.6,0.6,0.8,0.9c0.2,0.3,0.2,0.6,0.3,0.9c0,0.1,0,0.3-0.1,0.4c-0.1,0.1-0.1,0.2-0.2,0.3c-0.1,0.1-0.2,0.2-0.4,0.3
	C15.5,10,15.4,10,15.2,10c-0.2,0-0.5-0.1-0.7-0.2c-0.2-0.2-0.4-0.4-0.5-0.7c-0.2-0.4-0.5-0.7-0.8-1c-0.4-0.3-1-0.4-1.5-0.3
	c-0.5,0-1,0.1-1.5,0.4C10.2,8.3,10,8.4,9.9,8.6C9.8,8.7,9.8,8.9,9.8,9.1c0,0.2,0.1,0.4,0.2,0.6c0.1,0.2,0.3,0.3,0.5,0.4
	c0.2,0.1,0.5,0.2,0.7,0.3c0.2,0.1,0.6,0.2,1.2,0.3c0.7,0.1,1.3,0.3,1.9,0.5c0.5,0.2,1,0.4,1.4,0.7c0.4,0.2,0.7,0.6,0.9,1
	c0.2,0.5,0.3,1,0.3,1.5C16.9,14.9,16.7,15.6,16.3,16.1z"/>
</svg>
