<?xml version="1.0" encoding="utf-8"?>
<!-- Generator: Adobe Illustrator 25.4.1, SVG Export Plug-In . SVG Version: 6.00 Build 0)  -->
<svg version="1.1" id="Layer_1" xmlns="http://www.w3.org/2000/svg" xmlns:xlink="http://www.w3.org/1999/xlink" x="0px" y="0px"
	 viewBox="0 0 24 24" style="enable-background:new 0 0 24 24;" xml:space="preserve">
<style type="text/css">
	.st0{fill:#FFFFFF;}
</style>
<path class="st0" d="M8.9,18.7c1.3,0,2.5-0.2,3.7-0.7c1.2-0.5,2.2-1.2,3.1-2.1c0.9-0.9,1.6-2,2.1-3.1c0.5-1.2,0.7-2.4,0.7-3.7
	c0-0.2,0-0.3,0-0.4c0.7-0.5,1.2-1.1,1.7-1.7c-0.6,0.3-1.3,0.4-1.9,0.5C19,7,19.6,6.3,19.8,5.5c-0.7,0.4-1.4,0.7-2.1,0.8
	c-0.5-0.5-1.2-0.9-1.9-1c-0.7-0.1-1.5,0-2.1,0.4c-0.7,0.4-1.2,0.9-1.5,1.6c-0.3,0.7-0.4,1.4-0.2,2.2C10.5,9.4,9.2,9,8,8.4
	C6.8,7.8,5.8,7,4.9,5.9C4.5,6.7,4.4,7.5,4.5,8.4c0.2,0.8,0.7,1.6,1.4,2c-0.5,0-1-0.2-1.5-0.4v0c0,0.8,0.3,1.5,0.7,2.1
	c0.5,0.6,1.2,1,1.9,1.2c-0.5,0.1-1,0.2-1.5,0.1c0.2,0.7,0.6,1.2,1.2,1.7c0.6,0.4,1.2,0.6,1.9,0.7c-1.2,1-2.7,1.5-4.2,1.5
	c-0.3,0-0.5,0-0.8-0.1C5.3,18.2,7.1,18.7,8.9,18.7"/>
</svg>
